<svg xmlns="http://www.w3.org/2000/svg" width="37" height="52"><defs><symbol viewBox="0 0 37 52" id="banner"><path d="M2 0h32.537a2 2 0 012 2v33.619a2 2 0 01-.696 1.517l-16.269 13.98a2 2 0 01-2.607 0L.696 37.136A2 2 0 010 35.619V2a2 2 0 012-2z"/><path fill="#FFF" d="M18.808 24.274l-8.194-4.107 8.194-4.108 8.194 4.108-8.194 4.107zm6.15 3.893c0 .58-.612 1.193-1.662 1.667v-6.692l1.662-.833v5.858zm-6.15 2.5c-3.625 0-6.15-1.318-6.15-2.5v-5.858l5.927 2.972a.496.496 0 00.446 0l3.268-1.639v6.559c-.967.285-2.154.466-3.491.466zM23.49 34h-1.386l.693-.973.693.973zm4.85-14.28l-9.31-4.667a.5.5 0 00-.445 0l-9.31 4.666a.5.5 0 000 .895l2.385 1.195v6.358c0 1.962 3.14 3.5 7.148 3.5 1.276 0 2.464-.157 3.49-.434v.774l-1.569 2.202a.502.502 0 00.406.791h3.325a.499.499 0 00.406-.79l-1.57-2.203v-1.1c1.63-.636 2.66-1.618 2.66-2.74v-6.358l2.384-1.195a.5.5 0 000-.895z" opacity=".9"/></symbol></defs></svg>