<?xml version="1.0" encoding="UTF-8"?>
<!DOCTYPE svg PUBLIC "-//W3C//DTD SVG 1.1//EN" "http://www.w3.org/Graphics/SVG/1.1/DTD/svg11.dtd">
<!-- Creator: CorelDRAW 2021 (64-Bit) -->
<svg xmlns="http://www.w3.org/2000/svg" xml:space="preserve" width="43.5051mm" height="61.1639mm" version="1.1" style="shape-rendering:geometricPrecision; text-rendering:geometricPrecision; image-rendering:optimizeQuality; fill-rule:evenodd; clip-rule:evenodd"
viewBox="0 0 1183.38 1663.72"
 xmlns:xlink="http://www.w3.org/1999/xlink"
 xmlns:xodm="http://www.corel.com/coreldraw/odm/2003">
 <defs>
  <style type="text/css">
   <![CDATA[
    .str1 {stroke:#FEFEFE;stroke-width:23.99;stroke-miterlimit:22.9256}
    .str0 {stroke:#FEFEFE;stroke-width:23.99;stroke-linejoin:round;stroke-miterlimit:22.9256}
    .str2 {stroke:#FEFEFE;stroke-width:23.99;stroke-linejoin:round;stroke-miterlimit:6.76547}
    .fil1 {fill:none}
    .fil0 {fill:#00C86F}
   ]]>
  </style>
 </defs>
 <g id="Capa_x0020_1">
  <metadata id="CorelCorpID_0Corel-Layer"/>
  <path class="fil0" d="M57.26 0l1068.99 0c31.42,0 57.12,25.7 57.12,57.12l0 1062.65c0,3.17 -0.26,6.28 -0.77,9.32l0 0.01c-0.79,26.35 -4.23,54.66 -24.84,72.51l-508.92 440.67c-33.26,28.8 -87.98,28.56 -121.59,-0.55l-496.8 -430.17c-12.53,-10.85 -18.94,-16.78 -23.62,-33.76 -4.51,-16.39 -7.53,-39.4 -6.7,-71.42l0 -1049.25c0,-31.42 25.7,-57.12 57.12,-57.12z"/>
  <path class="fil1 str0" d="M609.24 802.92c-98.71,-50.52 -197.41,-101.04 -296.12,-151.57 98.18,-50.02 196.36,-100.04 294.54,-150.06 98.44,49.48 196.88,98.96 295.31,148.44 -97.91,51.06 -195.82,102.12 -293.73,153.18z"/>
  <path class="fil1 str1" d="M394.07 692.78l0.5 232.65c37.79,61.63 115.54,79.29 208.73,79.96 93.76,3.91 170.71,-17.41 220.16,-79.96l0 -233.24"/>
  <polyline class="fil1 str2" points="738.79,735.36 738.79,1038.62 689.5,1112.36 787.11,1112.36 738.79,1038.62 "/>
 </g>
</svg>
