<?xml version="1.0" encoding="UTF-8"?>
<!DOCTYPE svg PUBLIC "-//W3C//DTD SVG 1.1//EN" "http://www.w3.org/Graphics/SVG/1.1/DTD/svg11.dtd">
<svg xmlns="http://www.w3.org/2000/svg" xml:space="preserve" width="43.9063mm" height="61.6187mm" version="1.1" style="shape-rendering:geometricPrecision; text-rendering:geometricPrecision; image-rendering:optimizeQuality; fill-rule:evenodd; clip-rule:evenodd"
viewBox="0 0 4283.65 6011.74"
 xmlns:xlink="http://www.w3.org/1999/xlink"
 xmlns:xodm="http://www.corel.com/coreldraw/odm/2003">
 <defs>
  <style type="text/css">
   <![CDATA[
    .fil0 {fill:#00C86F}
   ]]>
  </style>
 </defs>
 <g id="Capa_x0020_1">
  <metadata id="CorelCorpID_0Corel-Layer"/>
  <path class="fil0" d="M1366.13 2566.69c-213.54,-226.34 -594.39,-87.67 91.02,-430.15 922.62,-461.02 579.26,-456.78 1499.72,3.21 667.09,333.37 312.23,194.35 88.7,423.76 -38.12,172.36 1,493.97 -11.16,688.31 -18.64,297.76 -210.57,242.78 -305.3,391.77l189.33 407.44 -484.46 31.35 190.06 -388.26c-179.14,-106.43 -592.36,126.91 -1055.53,-138.09 -340.81,-195 -134.91,-648.95 -202.39,-989.33zm2897.68 -2026.99l0.55 -135.46c3.71,-544.11 -430.51,-381.47 -894.51,-381.47l-2555.9 0c-550.87,0 -798.99,-152.07 -792.22,464.86 9.34,851.88 3.15,1704.32 3.15,2556.34 0,1302.78 -227.26,1022.72 691.77,1827.58 199.66,174.86 1251.22,1134.41 1416.27,1140.15 182.87,6.36 1206.68,-940.3 1406.08,-1120.29 933.15,-842.31 724.78,-452.21 724.78,-1821.61 0,-843.37 -0.27,-1686.74 0.03,-2530.09z"/>
  <path class="fil0" d="M1271.19 2380.73c149.4,79.74 830.5,448.74 935.81,446.73 95.21,-1.81 792.61,-374.65 932.21,-448.78 -66.34,-85.98 -800.79,-467.49 -931.58,-469.5 -127.53,-1.96 -868.8,381.74 -936.44,471.54z"/>
  <path class="fil0" d="M2609.98 3523.3l1.15 -732.04c-248.15,4.8 -258.92,262.05 -560.32,103.3 -113.17,-59.61 -449.57,-252.65 -548.62,-256.3 -44.59,251.32 -88.56,735.2 180.24,853.98 245.13,108.32 676.62,125.57 927.55,31.05z"/>
  <path class="fil0" d="M2729.58 2707.52l-1.3 766.21c198.05,-63.75 192.07,-131.25 190.66,-326.03 -1.23,-168.71 15.39,-359.35 -12.13,-517.35l-177.23 77.17z"/>
  <polygon class="fil0" points="2596.61,3961.57 2740.45,3968.28 2675.53,3875.04 "/>
 </g>
</svg>
